# xmcd CD database file generated by Grip 2.95
# 
# Track frame offsets:
#       150
#       18392
#       29935
#       45935
#       63557
#       76057
#       90947
#       109605
#       121557
#       136082
#       154040
#       165740
#       175685
#       184837
#       199947
#       222865
#       239202
#       252697
#       269272
#       290770
# 
# Disc length: 4131 seconds
# 
# Revision: 3
# Processed by: cddbd v1.4b41PL1 Copyright (c) Steve Scherf et al.
# Submitted via: Grip 2.95
# 
DISCID=19102114
DTITLE=Waylon Jennings - Waylon Live
DYEAR=1900
DGENRE=
TTITLE0=T For Texas
TTITLE1=Rainy Day Woman
TTITLE2=Me And Paul
TTITLE3=The Last Letter
TTITLE4=I'm A Ramblin' Man
TTITLE5=Bob Wills Is Still The King
TTITLE6=Lovin' Her Was Easier (Than Anything I'll Ever Do Again)
TTITLE7=Look Into My Teardrops
TTITLE8=Lonesome, On'ry And Mean
TTITLE9=Freedom To Stay
TTITLE10=Big Ball In Cowtown
TTITLE11=The Taker
TTITLE12=MIssissippi Woman
TTITLE13=Mona
TTITLE14=Never Been To Spain
TTITLE15=Pick Up The Tempo
TTITLE16=Good Hearted Woman
TTITLE17=House Of The Rising Sun
TTITLE18=Me And Bobby McGee
TTITLE19=This Time
EXTD=
EXTT0=
EXTT1=
EXTT2=
EXTT3=
EXTT4=
EXTT5=
EXTT6=
EXTT7=
EXTT8=
EXTT9=
EXTT10=
EXTT11=
EXTT12=
EXTT13=
EXTT14=
EXTT15=
EXTT16=
EXTT17=
EXTT18=
EXTT19=
PLAYORDER=
